<svg width="30" height="14" viewBox="0 0 30 14" fill="none" xmlns="http://www.w3.org/2000/svg">
<path fill-rule="evenodd" clip-rule="evenodd" d="M0.191581 0.888322V0.888322C0.00774085 0.439897 0.392883 0.0376369 0.87753 0.0376369H1.9623C1.98312 0.0376369 1.97775 0.00359295 1.99826 1.28774e-07V1.28774e-07C1.99873 -8.0977e-05 2.00585 0.0381469 2.04103 0.123961C2.09026 0.244044 2.17318 0.406341 2.29684 0.609655C2.54363 1.01541 2.91053 1.51594 3.36638 2.0636C4.27439 3.15448 5.47099 4.35554 6.60941 5.26565C7.60753 6.00828 8.91309 6.72616 9.99915 7.26876C10.5389 7.53843 11.0136 7.75946 11.3526 7.91279C11.4107 7.93905 11.4648 7.96331 11.5145 7.98547C11.6404 8.04164 11.777 8.06998 11.9149 8.06998H18.1695C18.2794 8.06998 18.3892 8.05174 18.4931 8.01591C20.7352 7.24242 21.8278 6.6747 23.3308 5.31576L23.3525 5.29617L23.3752 5.27799L23.3774 5.27617L23.3866 5.26875L23.4252 5.23737C23.4596 5.20926 23.5109 5.16708 23.5768 5.11227C23.7086 5.0026 23.8983 4.8427 24.1263 4.64425C24.5837 4.24629 25.1899 3.69829 25.7929 3.09283C26.4003 2.48294 26.982 1.83705 27.405 1.2425C27.4799 1.13729 27.5461 1.03861 27.6046 0.946426C27.9004 0.480046 28.4477 0.0376369 29 0.0376369V0.0376369C29.5523 0.0376369 29.9998 0.49574 29.8084 1.01382C29.6222 1.51816 29.3252 1.99823 29.0325 2.40968C28.518 3.13293 27.8497 3.86761 27.2071 4.51276C26.8883 4.83285 26.5703 5.1364 26.2723 5.41199C25.8477 5.80452 25.8234 6.47272 26.2314 6.88238L28.0043 8.66242C28.3929 9.05262 28.3915 9.68501 28.0029 10.0752V10.0752C27.612 10.4676 26.9752 10.4691 26.5844 10.0766L24.5835 8.06768C24.2217 7.70445 23.6467 7.67806 23.2274 7.97307C22.4799 8.49907 21.7315 8.89931 20.8475 9.27251C20.3154 9.49716 20.0525 10.1091 20.2863 10.6373L21.0103 12.2728C21.2333 12.7767 21.006 13.3664 20.5027 13.591V13.591C19.9973 13.8165 19.4042 13.5889 19.1802 13.0828L18.1136 10.6733C17.9534 10.3114 17.5949 10.0781 17.1992 10.0781H12.8008C12.4051 10.0781 12.0466 10.3114 11.8864 10.6733L10.8199 13.0826C10.5959 13.5886 10.003 13.8162 9.49762 13.5908V13.5908C8.99419 13.3663 8.76675 12.7765 8.98987 12.2725L9.78274 10.4813C10.0035 9.98262 9.78334 9.40016 9.29421 9.15892C9.2331 9.12879 9.17105 9.09799 9.10816 9.06657C8.44149 8.73349 7.66414 8.32189 6.90331 7.86397C6.47451 7.60589 5.91826 7.68043 5.58944 8.05773L3.91221 9.98232C3.54833 10.3999 2.91307 10.441 2.49699 10.0754V10.0754C2.08325 9.71194 2.03997 9.08121 2.4018 8.66602L3.92225 6.92133C4.2834 6.50693 4.24111 5.87989 3.84389 5.49992C3.11251 4.80032 2.41764 4.05522 1.83175 3.35133C1.33791 2.75803 0.905277 2.17466 0.589959 1.65625C0.432566 1.39748 0.293787 1.13762 0.191581 0.888322Z" fill="black"/>
</svg>
