<svg width="30" height="27" viewBox="0 0 30 27" fill="none" xmlns="http://www.w3.org/2000/svg">
<path fill-rule="evenodd" clip-rule="evenodd" d="M0.191581 13.8883C0.00774085 13.4399 0.392883 13.0376 0.87753 13.0376H1.9623C1.98312 13.0376 1.97775 13.0036 1.99826 13C1.99873 12.9999 2.00585 13.0381 2.04103 13.124C2.09026 13.244 2.17318 13.4063 2.29684 13.6097C2.54363 14.0154 2.91053 14.5159 3.36638 15.0636C4.27439 16.1545 5.47099 17.3555 6.60941 18.2657C7.60753 19.0083 8.91309 19.7262 9.99915 20.2688C10.5389 20.5384 11.0136 20.7595 11.3526 20.9128C11.4107 20.9391 11.4648 20.9633 11.5145 20.9855C11.6404 21.0416 11.777 21.07 11.9149 21.07H18.1695C18.2794 21.07 18.3892 21.0517 18.4931 21.0159C20.7352 20.2424 21.8278 19.6747 23.3308 18.3158L23.3525 18.2962L23.3752 18.278L23.3774 18.2762L23.3866 18.2688L23.4252 18.2374C23.4596 18.2093 23.5109 18.1671 23.5768 18.1123C23.7086 18.0026 23.8983 17.8427 24.1263 17.6442C24.5837 17.2463 25.1899 16.6983 25.7929 16.0928C26.4003 15.4829 26.982 14.8371 27.405 14.2425C27.4799 14.1373 27.5461 14.0386 27.6046 13.9464C27.9004 13.48 28.4477 13.0376 29 13.0376C29.5523 13.0376 29.9998 13.4957 29.8084 14.0138C29.6222 14.5182 29.3252 14.9982 29.0325 15.4097C28.518 16.1329 27.8497 16.8676 27.2071 17.5128C26.8883 17.8328 26.5703 18.1364 26.2723 18.412C25.8477 18.8045 25.8234 19.4727 26.2314 19.8824L28.0043 21.6624C28.3929 22.0526 28.3915 22.685 28.0029 23.0752C27.612 23.4676 26.9752 23.4691 26.5844 23.0766L24.5835 21.0677C24.2217 20.7045 23.6467 20.6781 23.2274 20.9731C22.4799 21.4991 21.7315 21.8993 20.8475 22.2725C20.3154 22.4972 20.0525 23.1091 20.2863 23.6373L21.0103 25.2728C21.2333 25.7767 21.006 26.3664 20.5027 26.591C19.9973 26.8165 19.4042 26.5889 19.1802 26.0828L18.1136 23.6733C17.9534 23.3114 17.5949 23.0781 17.1992 23.0781H12.8008C12.4051 23.0781 12.0466 23.3114 11.8864 23.6733L10.8199 26.0826C10.5959 26.5886 10.003 26.8162 9.49762 26.5908C8.99419 26.3663 8.76675 25.7765 8.98987 25.2725L9.78274 23.4813C10.0035 22.9826 9.78334 22.4002 9.29421 22.1589C9.2331 22.1288 9.17105 22.098 9.10816 22.0666C8.44149 21.7335 7.66414 21.3219 6.90331 20.864C6.47451 20.6059 5.91826 20.6804 5.58944 21.0577L3.91221 22.9823C3.54833 23.3999 2.91307 23.441 2.49699 23.0754C2.08325 22.7119 2.03997 22.0812 2.4018 21.666L3.92225 19.9213C4.2834 19.5069 4.24111 18.8799 3.84389 18.4999C3.11251 17.8003 2.41764 17.0552 1.83175 16.3513C1.33791 15.758 0.905277 15.1747 0.589959 14.6562C0.432566 14.3975 0.293787 14.1376 0.191581 13.8883Z" fill="black"/>
<path fill-rule="evenodd" clip-rule="evenodd" d="M0.191581 13.1117C0.00774085 13.5601 0.392883 13.9624 0.87753 13.9624H1.9623C1.98312 13.9624 1.97775 13.9964 1.99826 14C1.99873 14.0001 2.00585 13.9619 2.04103 13.876C2.09026 13.756 2.17318 13.5937 2.29684 13.3903C2.54363 12.9846 2.91053 12.4841 3.36638 11.9364C4.27439 10.8455 5.47099 9.64446 6.60941 8.73435C7.60753 7.99172 8.91309 7.27384 9.99915 6.73124C10.5389 6.46157 11.0136 6.24054 11.3526 6.08721C11.4107 6.06095 11.4648 6.03669 11.5145 6.01453C11.6404 5.95836 11.777 5.93002 11.9149 5.93002H18.1695C18.2794 5.93002 18.3892 5.94826 18.4931 5.98409C20.7352 6.75758 21.8278 7.3253 23.3308 8.68424L23.3525 8.70383L23.3752 8.72201L23.3774 8.72383L23.3866 8.73125L23.4252 8.76263C23.4596 8.79074 23.5109 8.83292 23.5768 8.88773C23.7086 8.9974 23.8983 9.1573 24.1263 9.35575C24.5837 9.75371 25.1899 10.3017 25.7929 10.9072C26.4003 11.5171 26.982 12.1629 27.405 12.7575C27.4799 12.8627 27.5461 12.9614 27.6046 13.0536C27.9004 13.52 28.4477 13.9624 29 13.9624C29.5523 13.9624 29.9998 13.5043 29.8084 12.9862C29.6222 12.4818 29.3252 12.0018 29.0325 11.5903C28.518 10.8671 27.8497 10.1324 27.2071 9.48724C26.8883 9.16715 26.5703 8.8636 26.2723 8.58801C25.8477 8.19548 25.8234 7.52728 26.2314 7.11762L28.0043 5.33758C28.3929 4.94738 28.3915 4.31499 28.0029 3.9248C27.612 3.53237 26.9752 3.53093 26.5844 3.92336L24.5835 5.93232C24.2217 6.29555 23.6467 6.32194 23.2274 6.02693C22.4799 5.50093 21.7315 5.10069 20.8475 4.72749C20.3154 4.50284 20.0525 3.89086 20.2863 3.3627L21.0103 1.72724C21.2333 1.22329 21.006 0.633586 20.5027 0.409001C19.9973 0.183464 19.4042 0.411072 19.1802 0.917161L18.1136 3.3267C17.9534 3.68857 17.5949 3.92193 17.1992 3.92193H12.8008C12.4051 3.92193 12.0466 3.68857 11.8864 3.3267L10.8199 0.917427C10.5959 0.411429 10.003 0.183796 9.49762 0.409163C8.99419 0.633658 8.76675 1.22347 8.98987 1.72751L9.78274 3.51868C10.0035 4.01738 9.78334 4.59984 9.29421 4.84108C9.2331 4.87121 9.17105 4.90201 9.10816 4.93343C8.44149 5.26651 7.66414 5.67811 6.90331 6.13603C6.47451 6.39411 5.91826 6.31957 5.58944 5.94227L3.91221 4.01768C3.54833 3.60014 2.91307 3.55903 2.49699 3.92458C2.08325 4.28806 2.03997 4.91879 2.4018 5.33398L3.92225 7.07867C4.2834 7.49307 4.24111 8.12011 3.84389 8.50008C3.11251 9.19968 2.41764 9.94478 1.83175 10.6487C1.33791 11.242 0.905277 11.8253 0.589959 12.3438C0.432566 12.6025 0.293787 12.8624 0.191581 13.1117Z" fill="black"/>
<circle cx="15" cy="13" r="4" fill="black"/>
</svg>
