<?xml version="1.0" encoding="UTF-8" standalone="no"?>
<svg
   id="visual"
   viewBox="0 0 900 450"
   width="900"
   height="450"
   version="1.1"
   sodipodi:docname="waves.svg"
   inkscape:version="1.3.2 (091e20e, 2023-11-25, custom)"
   xmlns:inkscape="http://www.inkscape.org/namespaces/inkscape"
   xmlns:sodipodi="http://sodipodi.sourceforge.net/DTD/sodipodi-0.dtd"
   xmlns="http://www.w3.org/2000/svg"
   xmlns:svg="http://www.w3.org/2000/svg">
  <defs
     id="defs7" />
  <sodipodi:namedview
     id="namedview7"
     pagecolor="#ffffff"
     bordercolor="#000000"
     borderopacity="0.25"
     inkscape:showpageshadow="2"
     inkscape:pageopacity="0.0"
     inkscape:pagecheckerboard="0"
     inkscape:deskcolor="#d1d1d1"
     inkscape:zoom="0.77944444"
     inkscape:cx="181.53956"
     inkscape:cy="313.68496"
     inkscape:window-width="1920"
     inkscape:window-height="1017"
     inkscape:window-x="1912"
     inkscape:window-y="-8"
     inkscape:window-maximized="1"
     inkscape:current-layer="visual" />
  <path
     d="m 479.5082,0 -11.8,10.7 c -11.9,10.6 -35.5,32 -50,53.5 -14.5,21.5 -19.9,43.1 -8.4,64.6 11.5,21.5 39.9,42.9 35.2,64.2 -4.7,21.3 -42.3,42.7 -42.5,64 -0.2,21.3 37.2,42.7 54,64.2 16.8,21.5 13.2,43.1 13.5,64.6 0.3,21.5 4.7,42.9 6.8,53.5 l 2.2,10.7 H 29.508197 v -10.7 c 0,-10.6 0,-32 0,-53.5 0,-21.5 0,-43.1 0,-64.6 0,-21.5 0,-42.9 0,-64.2 0,-21.3 0,-42.7 0,-64 0,-21.3 0,-42.7 0,-64.2 0,-21.5 0,-43.1 0,-64.6 0,-21.5 0,-42.9 0,-53.5 V 0 Z"
     fill="#faec7d"
     id="path1" />
  <path
     d="m 353.5082,0 4.7,10.7 c 4.6,10.6 14,32 9,53.5 -5,21.5 -24.4,43.1 -22.5,64.6 1.8,21.5 24.8,42.9 37.1,64.2 12.4,21.3 14,42.7 4.7,64 -9.3,21.3 -29.7,42.7 -31.2,64.2 -1.5,21.5 15.9,43.1 13.5,64.6 -2.3,21.5 -24.3,42.9 -35.3,53.5 l -11,10.7 H 29.508197 v -10.7 c 0,-10.6 0,-32 0,-53.5 0,-21.5 0,-43.1 0,-64.6 0,-21.5 0,-42.9 0,-64.2 0,-21.3 0,-42.7 0,-64 0,-21.3 0,-42.7 0,-64.2 0,-21.5 0,-43.1 0,-64.6 0,-21.5 0,-42.9 0,-53.5 V 0 Z"
     fill="#fed45d"
     id="path2" />
  <path
     d="m 309.5082,0 1.8,10.7 c 1.9,10.6 5.5,32 10.2,53.5 4.7,21.5 10.3,43.1 13,64.6 2.7,21.5 2.3,42.9 -1.2,64.2 -3.5,21.3 -10.1,42.7 -18.3,64 -8.2,21.3 -17.8,42.7 -13.7,64.2 4.2,21.5 22.2,43.1 33,64.6 10.9,21.5 14.5,42.9 16.4,53.5 l 1.8,10.7 H 29.508197 v -10.7 c 0,-10.6 0,-32 0,-53.5 0,-21.5 0,-43.1 0,-64.6 0,-21.5 0,-42.9 0,-64.2 0,-21.3 0,-42.7 0,-64 0,-21.3 0,-42.7 0,-64.2 0,-21.5 0,-43.1 0,-64.6 0,-21.5 0,-42.9 0,-53.5 V 0 Z"
     fill="#ffc056"
     id="path3" />
  <path
     d="m 229.5082,0 4.5,10.7 c 4.5,10.6 13.5,32 20.5,53.5 7,21.5 12,43.1 15,64.6 3,21.5 4,42.9 7.3,64.2 3.4,21.3 9,42.7 1,64 -8,21.3 -29.6,42.7 -30.3,64.2 -0.7,21.5 19.7,43.1 24.7,64.6 5,21.5 -5.4,42.9 -10.5,53.5 l -5.2,10.7 H 29.508197 v -10.7 c 0,-10.6 0,-32 0,-53.5 0,-21.5 0,-43.1 0,-64.6 0,-21.5 0,-42.9 0,-64.2 0,-21.3 0,-42.7 0,-64 0,-21.3 0,-42.7 0,-64.2 0,-21.5 0,-43.1 0,-64.6 0,-21.5 0,-42.9 0,-53.5 V 0 Z"
     fill="#ffac53"
     id="path4" />
  <path
     d="m 241.5082,0 -1.2,10.7 c -1.1,10.6 -3.5,32 -15.6,53.5 -12.2,21.5 -34.2,43.1 -40.7,64.6 -6.5,21.5 2.5,42.9 9.8,64.2 7.4,21.3 13,42.7 12.9,64 -0.2,21.3 -6.2,42.7 -1.7,64.2 4.5,21.5 19.5,43.1 15.3,64.6 -4.1,21.5 -27.5,42.9 -39.1,53.5 l -11.7,10.7 H 29.508197 v -10.7 c 0,-10.6 0,-32 0,-53.5 0,-21.5 0,-43.1 0,-64.6 0,-21.5 0,-42.9 0,-64.2 0,-21.3 0,-42.7 0,-64 0,-21.3 0,-42.7 0,-64.2 0,-21.5 0,-43.1 0,-64.6 0,-21.5 0,-42.9 0,-53.5 V 0 Z"
     fill="#ff9854"
     id="path5" />
  <path
     d="m 167.5082,0 v 10.7 c 0,10.6 0,32 -7.2,53.5 -7.1,21.5 -21.5,43.1 -27,64.6 -5.5,21.5 -2.1,42.9 3,64.2 5.2,21.3 12.2,42.7 13,64 0.9,21.3 -4.5,42.7 -3.8,64.2 0.7,21.5 7.3,43.1 10,64.6 2.7,21.5 1.3,42.9 0.7,53.5 l -0.7,10.7 H 29.508197 v -10.7 c 0,-10.6 0,-32 0,-53.5 0,-21.5 0,-43.1 0,-64.6 0,-21.5 0,-42.9 0,-64.2 0,-21.3 0,-42.7 0,-64 0,-21.3 0,-42.7 0,-64.2 0,-21.5 0,-43.1 0,-64.6 0,-21.5 0,-42.9 0,-53.5 V 0 Z"
     fill="#ff8359"
     id="path6" />
  <path
     d="m 112.10903,0.19450149 c 0,0 -11.50454,41.46308951 -10.70454,62.96308951 0.8,21.5 -4.799999,43.100009 -10.499999,64.600009 -5.7,21.5 -11.3,42.9 -12.3,64.2 -1,21.3 2.6,42.7 10.6,64 8,21.3 20.399999,42.7 23.199999,64.2 2.8,21.5 -3.8,43.1 -5,64.6 -1.2,21.5 0.40111,36.65331 1.45111,41.95331 1.05,5.3 9.448,14.78945 7.6125,23.28909 -5.84476,0 -73.436244,-0.0275 -102.722929,-0.0275 C 9.8028947,428.37866 27.24513,425.57204 27.176323,365.87871 27.107516,306.18538 21.138885,279.24901 20.238936,259.69639 19.338988,240.14377 13.868674,201.86809 7.3770497,172.71308 0.88542575,143.55806 3.3185077,120.92828 8.0185317,103.38122 12.718557,85.834157 15.022357,78.569675 18.763364,68.449782 22.504372,58.329889 26.569913,44.622753 25.178189,27.779433 23.786466,10.936112 21.523561,7.7779358 29.027085,-0.0802253 c 10.229824,0 83.081945,0.27468679 83.081945,0.27468679 z"
     fill="#ff6f51"
     id="path7"
     sodipodi:nodetypes="cccccccccccccccccc" />
</svg>
