<svg width="72" height="74" viewBox="0 0 72 74" fill="none" xmlns="http://www.w3.org/2000/svg">
<path d="M40.7349 35.6525L3.9056 29.6244C3.00287 29.4766 2.35726 29.3705 1.90494 29.2583C1.67979 29.2025 1.52654 29.1507 1.42476 29.1024C1.34705 29.0655 1.32108 29.0408 1.31701 29.0367C1.22877 28.9023 1.2106 28.7336 1.26821 28.5834C1.27129 28.5787 1.29136 28.549 1.35954 28.4963C1.44871 28.4275 1.58742 28.3442 1.79554 28.2418C2.21364 28.0359 2.82189 27.7949 3.67251 27.4584L68.8137 1.69278C69.3104 1.49632 69.6492 1.3629 69.9067 1.28854C70.1702 1.21246 70.2556 1.22825 70.2785 1.23563C70.4085 1.27742 70.5157 1.37052 70.5753 1.49334C70.5858 1.51501 70.6134 1.59729 70.575 1.86885C70.5375 2.1343 70.4529 2.48847 70.328 3.00779L54.1422 70.309C53.9267 71.2052 53.772 71.8464 53.6258 72.2927C53.553 72.5149 53.4896 72.6653 53.4335 72.7641C53.3909 72.8392 53.3642 72.8635 53.3598 72.8673C53.2189 72.9452 53.0491 72.9505 52.9037 72.8816C52.899 72.878 52.8709 72.8553 52.8237 72.7831C52.7616 72.688 52.6889 72.5419 52.6024 72.3247C52.4287 71.8883 52.2344 71.258 51.9634 70.3769L41.4869 36.3116L48.0631 28.8771C48.2461 28.6703 48.2267 28.3543 48.0199 28.1713C47.813 27.9884 47.4971 28.0077 47.3141 28.2146L40.7349 35.6525Z" fill="#FFBF4C" stroke="black" stroke-miterlimit="1.30541" stroke-linecap="round"/>
</svg>
