<svg id="visual" viewBox="0 0 900 450" width="900" height="450" xmlns="http://www.w3.org/2000/svg" xmlns:xlink="http://www.w3.org/1999/xlink" version="1.1">
<path d="M450 0L438.2 10.7C426.3 21.3 402.7 42.7 388.2 64.2C373.7 85.7 368.3 107.3 379.8 128.8C391.3 150.3 419.7 171.7 415 193C410.3 214.3 372.7 235.7 372.5 257C372.3 278.3 409.7 299.7 426.5 321.2C443.3 342.7 439.7 364.3 440 385.8C440.3 407.3 444.7 428.7 446.8 439.3L449 450L0 450L0 439.3C0 428.7 0 407.3 0 385.8C0 364.3 0 342.7 0 321.2C0 299.7 0 278.3 0 257C0 235.7 0 214.3 0 193C0 171.7 0 150.3 0 128.8C0 107.3 0 85.7 0 64.2C0 42.7 0 21.3 0 10.7L0 0Z" fill="#faec7d"></path>
<path d="M324 0L328.7 10.7C333.3 21.3 342.7 42.7 337.7 64.2C332.7 85.7 313.3 107.3 315.2 128.8C317 150.3 340 171.7 352.3 193C364.7 214.3 366.3 235.7 357 257C347.7 278.3 327.3 299.7 325.8 321.2C324.3 342.7 341.7 364.3 339.3 385.8C337 407.3 315 428.7 304 439.3L293 450L0 450L0 439.3C0 428.7 0 407.3 0 385.8C0 364.3 0 342.7 0 321.2C0 299.7 0 278.3 0 257C0 235.7 0 214.3 0 193C0 171.7 0 150.3 0 128.8C0 107.3 0 85.7 0 64.2C0 42.7 0 21.3 0 10.7L0 0Z" fill="#fed45d"></path>
<path d="M280 0L281.8 10.7C283.7 21.3 287.3 42.7 292 64.2C296.7 85.7 302.3 107.3 305 128.8C307.7 150.3 307.3 171.7 303.8 193C300.3 214.3 293.7 235.7 285.5 257C277.3 278.3 267.7 299.7 271.8 321.2C276 342.7 294 364.3 304.8 385.8C315.7 407.3 319.3 428.7 321.2 439.3L323 450L0 450L0 439.3C0 428.7 0 407.3 0 385.8C0 364.3 0 342.7 0 321.2C0 299.7 0 278.3 0 257C0 235.7 0 214.3 0 193C0 171.7 0 150.3 0 128.8C0 107.3 0 85.7 0 64.2C0 42.7 0 21.3 0 10.7L0 0Z" fill="#ffc056"></path>
<path d="M200 0L204.5 10.7C209 21.3 218 42.7 225 64.2C232 85.7 237 107.3 240 128.8C243 150.3 244 171.7 247.3 193C250.7 214.3 256.3 235.7 248.3 257C240.3 278.3 218.7 299.7 218 321.2C217.3 342.7 237.7 364.3 242.7 385.8C247.7 407.3 237.3 428.7 232.2 439.3L227 450L0 450L0 439.3C0 428.7 0 407.3 0 385.8C0 364.3 0 342.7 0 321.2C0 299.7 0 278.3 0 257C0 235.7 0 214.3 0 193C0 171.7 0 150.3 0 128.8C0 107.3 0 85.7 0 64.2C0 42.7 0 21.3 0 10.7L0 0Z" fill="#ffac53"></path>
<path d="M212 0L210.8 10.7C209.7 21.3 207.3 42.7 195.2 64.2C183 85.7 161 107.3 154.5 128.8C148 150.3 157 171.7 164.3 193C171.7 214.3 177.3 235.7 177.2 257C177 278.3 171 299.7 175.5 321.2C180 342.7 195 364.3 190.8 385.8C186.7 407.3 163.3 428.7 151.7 439.3L140 450L0 450L0 439.3C0 428.7 0 407.3 0 385.8C0 364.3 0 342.7 0 321.2C0 299.7 0 278.3 0 257C0 235.7 0 214.3 0 193C0 171.7 0 150.3 0 128.8C0 107.3 0 85.7 0 64.2C0 42.7 0 21.3 0 10.7L0 0Z" fill="#ff9854"></path>
<path d="M138 0L138 10.7C138 21.3 138 42.7 130.8 64.2C123.7 85.7 109.3 107.3 103.8 128.8C98.3 150.3 101.7 171.7 106.8 193C112 214.3 119 235.7 119.8 257C120.7 278.3 115.3 299.7 116 321.2C116.7 342.7 123.3 364.3 126 385.8C128.7 407.3 127.3 428.7 126.7 439.3L126 450L0 450L0 439.3C0 428.7 0 407.3 0 385.8C0 364.3 0 342.7 0 321.2C0 299.7 0 278.3 0 257C0 235.7 0 214.3 0 193C0 171.7 0 150.3 0 128.8C0 107.3 0 85.7 0 64.2C0 42.7 0 21.3 0 10.7L0 0Z" fill="#ff8359"></path>
<path d="M58 0L61.7 10.7C65.3 21.3 72.7 42.7 73.5 64.2C74.3 85.7 68.7 107.3 63 128.8C57.3 150.3 51.7 171.7 50.7 193C49.7 214.3 53.3 235.7 61.3 257C69.3 278.3 81.7 299.7 84.5 321.2C87.3 342.7 80.7 364.3 79.5 385.8C78.3 407.3 82.7 428.7 84.8 439.3L87 450L0 450L0 439.3C0 428.7 0 407.3 0 385.8C0 364.3 0 342.7 0 321.2C0 299.7 0 278.3 0 257C0 235.7 0 214.3 0 193C0 171.7 0 150.3 0 128.8C0 107.3 0 85.7 0 64.2C0 42.7 0 21.3 0 10.7L0 0Z" fill="#ff6f51"></path></svg>